<svg width="30" height="11" viewBox="0 0 30 11" fill="none" xmlns="http://www.w3.org/2000/svg">
<path d="M29.9288 5.61537C29.8836 5.49274 29.8158 5.38071 29.7294 5.2857L25.932 1.28965C25.8435 1.1965 25.7384 1.12262 25.6227 1.07221C25.5071 1.0218 25.3831 0.99585 25.2579 0.99585C25.0051 0.99585 24.7627 1.10153 24.5839 1.28965C24.4051 1.47777 24.3047 1.73291 24.3047 1.99895C24.3047 2.26499 24.4051 2.52013 24.5839 2.70825L26.7674 4.99599L0.949357 5.00099C0.697572 5.00099 0.456099 5.10624 0.27806 5.29359C0.100021 5.48094 0 5.73505 0 6C0 6.26495 0.100021 6.51906 0.27806 6.70641C0.456099 6.89376 0.697572 6.99901 0.949357 6.99901L26.7674 6.99401L24.5839 9.28175C24.4949 9.37462 24.4243 9.48511 24.3761 9.60685C24.3279 9.72859 24.3031 9.85916 24.3031 9.99104C24.3031 10.1229 24.3279 10.2535 24.3761 10.3752C24.4243 10.497 24.4949 10.6075 24.5839 10.7003C24.6721 10.794 24.7771 10.8683 24.8928 10.919C25.0085 10.9697 25.1326 10.9958 25.2579 10.9958C25.3833 10.9958 25.5073 10.9697 25.623 10.919C25.7387 10.8683 25.8437 10.794 25.932 10.7003L29.7294 6.7043C29.8158 6.60929 29.8836 6.49725 29.9288 6.37462C30.0237 6.1314 30.0237 5.85859 29.9288 5.61537Z" fill="white"/>
</svg>
