<svg width="320" height="60" viewBox="0 0 320 60" fill="none" xmlns="http://www.w3.org/2000/svg">
<path d="M319.661 48.8723L317.779 50.4203C317.561 50.0628 317.26 49.7604 316.901 49.5364C316.542 49.3126 316.134 49.1735 315.712 49.1303C315.407 49.1194 315.11 49.2105 314.866 49.3883C314.768 49.4473 314.686 49.528 314.627 49.6243C314.568 49.7205 314.535 49.8292 314.527 49.9412C314.535 50.16 314.622 50.3689 314.772 50.5308C315.35 51.1168 315.979 51.6533 316.652 52.134C317.648 52.8895 318.251 53.3686 318.532 53.5528C318.99 53.9499 319.373 54.4242 319.661 54.9534C319.888 55.4054 320.005 55.9044 319.999 56.4091C320.009 56.8884 319.909 57.3636 319.707 57.8002C319.506 58.237 319.206 58.6242 318.833 58.9335C317.977 59.6201 316.892 59.9741 315.786 59.9287C314.89 59.9476 314.006 59.7245 313.23 59.2837C312.437 58.7681 311.79 58.0645 311.35 57.2384L313.55 56.0406C314.226 57.1276 314.979 57.6806 315.844 57.6806C316.249 57.6858 316.644 57.5631 316.971 57.3304C317.108 57.236 317.219 57.112 317.297 56.968C317.376 56.8241 317.419 56.6643 317.422 56.5011C317.408 56.1898 317.289 55.8919 317.084 55.6536C316.613 55.1843 316.103 54.753 315.561 54.3636C314.479 53.638 313.5 52.7768 312.647 51.8023C312.235 51.2726 312.01 50.6256 312.008 49.9596C312.008 49.5317 312.106 49.1091 312.294 48.7231C312.483 48.3372 312.757 47.9977 313.099 47.7299C313.847 47.1073 314.805 46.7789 315.786 46.8085C316.439 46.8194 317.08 46.9702 317.666 47.2509C318.43 47.647 319.112 48.178 319.68 48.8172L319.661 48.8723ZM275.283 51.9866H276.111C276.705 52.0358 277.3 51.9341 277.842 51.6918C277.997 51.5807 278.121 51.4331 278.204 51.2624C278.285 51.0916 278.322 50.9035 278.311 50.7151C278.311 50.4559 278.226 50.2037 278.067 49.9964C277.905 49.8011 277.69 49.6542 277.446 49.5727C276.973 49.4607 276.485 49.4173 275.999 49.4436H275.283V51.9866ZM272.651 47.1772H275.416C276.513 47.1251 277.612 47.2494 278.668 47.5457C279.306 47.7821 279.851 48.2072 280.23 48.7618C280.629 49.3638 280.833 50.0708 280.812 50.7888C280.84 51.5217 280.615 52.2422 280.173 52.8341C279.687 53.4243 279.032 53.8604 278.293 54.0873L281.546 59.6154H278.668L275.585 54.3452H275.34V59.6154H272.651V47.1772ZM233.991 49.1857C232.8 49.1552 231.645 49.5856 230.776 50.3834C230.334 50.7688 229.983 51.2435 229.746 51.7747C229.51 52.3059 229.391 52.8812 229.404 53.4608C229.384 54.0938 229.523 54.7219 229.809 55.2903C230.094 55.8589 230.515 56.3503 231.038 56.7223C231.878 57.3449 232.902 57.6757 233.954 57.6621C235.135 57.6838 236.277 57.2465 237.131 56.446C237.549 56.0613 237.88 55.5955 238.104 55.0783C238.327 54.5611 238.438 54.004 238.429 53.4423C238.442 52.8784 238.333 52.3182 238.106 51.7998C237.878 51.2815 237.54 50.8173 237.113 50.4386C236.69 50.0304 236.187 49.709 235.634 49.4939C235.081 49.2786 234.492 49.1739 233.898 49.1857H233.991ZM233.991 46.8638C235.845 46.8163 237.645 47.4771 239.011 48.7066C239.683 49.3073 240.211 50.0436 240.561 50.8645C240.912 51.6856 241.076 52.5713 241.043 53.4608C241.054 54.3307 240.875 55.193 240.514 55.9883C240.154 56.7834 239.621 57.4929 238.956 58.0674C237.57 59.3106 235.758 60 233.878 60C232 60 230.188 59.3106 228.802 58.0674C228.149 57.4841 227.628 56.7724 227.275 55.9785C226.922 55.1847 226.744 54.3267 226.751 53.4608C226.75 52.3033 227.075 51.168 227.692 50.1807C228.339 49.1786 229.249 48.3642 230.325 47.822C231.421 47.2128 232.656 46.8833 233.917 46.8638H233.991ZM193.075 47.1772H195.556V59.6154H192.962L193.075 47.1772ZM156.07 52.0419H156.897C157.49 52.0935 158.086 51.9918 158.627 51.7469C158.787 51.6398 158.914 51.4928 158.997 51.3212C159.079 51.1495 159.114 50.9594 159.097 50.7705C159.102 50.5132 159.023 50.2613 158.871 50.0518C158.698 49.8595 158.478 49.7138 158.232 49.6279C157.765 49.5168 157.283 49.4734 156.803 49.499H156.07V52.0419ZM153.456 47.1772H156.239C157.336 47.1263 158.435 47.2509 159.492 47.5457C160.123 47.7831 160.662 48.2085 161.034 48.7618C161.44 49.3618 161.65 50.0688 161.635 50.7888C161.658 51.5238 161.426 52.2445 160.977 52.8341C160.49 53.4243 159.836 53.8604 159.097 54.0873L162.35 59.6154H159.341L156.239 54.3452H156.07V59.6154H153.381L153.456 47.1772ZM114.457 47.1772H121.979V49.499H116.977V51.7469H121.885V54.0136H116.977V57.2935H121.885V59.6154H114.363L114.457 47.1772ZM76.1732 47.1772H83.6947V49.5173H81.1937V59.6154H78.5424V49.5173H76.098L76.1732 47.1772ZM34.5044 47.1772H37.0054L42.8345 55.3034V47.1772H45.4483V59.6154H42.9286L37.043 51.4521V59.6154H34.4294L34.5044 47.1772ZM0 47.1772H2.59489V59.6154H0V47.1772Z" fill="#0D213A"/>
<path d="M298.977 0.92147H319.792V4.44103H302.606V15.6447H319.661V19.1642H302.624V33.1872H319.661V36.7068H298.977V0.92147ZM250.839 36.7251L256.009 0.92147H256.612L271.373 30.4046L285.983 0.92147H286.586L291.793 36.7251H288.222L284.648 11.0748L271.824 36.6883H270.902L257.891 10.8905L254.375 36.6883L250.839 36.7251ZM226.038 3.55654C223.363 3.53583 220.73 4.22341 218.422 5.54665C216.068 6.85825 214.12 8.76812 212.781 11.0748C211.415 13.4589 210.715 16.1538 210.75 18.8877C210.713 20.8895 211.092 22.8777 211.865 24.731C212.637 26.5844 213.787 28.264 215.244 29.6676C216.641 31.0845 218.32 32.2047 220.176 32.9592C222.032 33.7137 224.028 34.086 226.038 34.0533C228.776 34.0706 231.471 33.3707 233.841 32.0263C236.207 30.7314 238.161 28.8175 239.483 26.4982C240.84 24.1183 241.533 21.43 241.494 18.7035C241.52 16.0291 240.819 13.3961 239.463 11.0748C238.135 8.76017 236.185 6.8478 233.822 5.54665C231.465 4.20101 228.783 3.5009 226.056 3.51969L226.038 3.55654ZM225.886 0.0185447C228.443 -0.0452489 230.985 0.402267 233.358 1.33375C235.73 2.26523 237.886 3.66111 239.688 5.43609C241.494 7.17868 242.918 9.264 243.871 11.5643C244.825 13.8647 245.289 16.3317 245.236 18.814C245.288 21.2909 244.822 23.7518 243.868 26.0458C242.914 28.3401 241.492 30.419 239.688 32.1554C236.078 35.6561 231.203 37.6195 226.123 37.6195C221.043 37.6195 216.166 35.6561 212.556 32.1554C210.744 30.4513 209.31 28.4011 208.339 26.1317C207.369 23.8623 206.884 21.422 206.914 18.9616C206.89 15.6106 207.764 12.3122 209.452 9.39792C211.071 6.54002 213.443 4.16036 216.322 2.50729C219.198 0.854242 222.476 -0.0116097 225.812 0.000117563L225.886 0.0185447ZM173.989 0.92147H177.637V15.9395H196.122V0.92147H199.769V36.7251H196.122V19.4407H177.637V36.7251H173.989V0.92147ZM125.833 0.92147H133.355L140.124 13.8204L146.668 0.92147H154.001L143.377 21.1912V36.6883H136.42V21.2281L125.833 0.92147ZM107.03 14.926H109.211C110.427 14.9836 111.644 14.8593 112.821 14.5575C113.475 14.3336 114.036 13.9065 114.42 13.3413C114.811 12.7356 115.014 12.0312 115.002 11.3143C115.04 10.7119 114.907 10.1109 114.618 9.57774C114.33 9.04456 113.897 8.59975 113.367 8.29228C111.981 7.70874 110.47 7.46826 108.967 7.59205H107.086L107.03 14.926ZM100.091 0.92147H107.425C110.326 0.772067 113.232 1.14045 115.999 2.00867C117.738 2.71764 119.195 3.95877 120.155 5.54665C121.191 7.30904 121.712 9.31757 121.659 11.3512C121.744 13.5871 121.047 15.7844 119.685 17.5795C118.302 19.261 116.414 20.4731 114.288 21.0438C111.893 21.5066 109.45 21.6921 107.011 21.5966V36.762H100.091V0.92147ZM78.6929 14.926H80.8552C82.0646 14.9838 83.2758 14.8595 84.4467 14.5575C85.1006 14.3336 85.6618 13.9065 86.045 13.3413C86.4504 12.7418 86.6543 12.033 86.6279 11.3143C86.6695 10.7134 86.5403 10.1129 86.2548 9.57952C85.9694 9.04612 85.5389 8.60056 85.0109 8.29228C83.6239 7.71235 82.1137 7.47202 80.6108 7.59205H78.7304L78.6929 14.926ZM71.7731 0.92147H79.1066C82.0082 0.772067 84.9137 1.14045 87.681 2.00867C89.4195 2.71764 90.8773 3.95877 91.8365 5.54665C92.8882 7.30381 93.4158 9.31481 93.3596 11.3512C93.4393 13.5893 92.7361 15.7868 91.3664 17.5795C89.9905 19.2686 88.0996 20.4825 85.9698 21.0438C83.5745 21.5066 81.1323 21.6921 78.6929 21.5966V36.762H71.7731V0.92147ZM49.0209 10.4114L44.1884 22.7021H53.8345L49.0209 10.4114ZM45.4669 0.92147H52.4808L66.4517 36.7251H59.2687L56.4294 29.3545H41.6311L38.6601 36.7251H31.4771L45.4669 0.92147ZM0 0.92147H7.01373V14.4285H19.1607V0.92147H26.1369V36.7251H19.1607V21.0253H7.01373V36.7251H0V0.92147Z" fill="#0D213A"/>
</svg>
