<svg width="24" height="24" viewBox="0 0 24 24" fill="none" xmlns="http://www.w3.org/2000/svg">
<path fill-rule="evenodd" clip-rule="evenodd" d="M7.48871 2H16.4007C19.4274 2 21.8898 4.46235 21.8896 7.48882V16.4008C21.8896 19.4273 19.4274 21.8896 16.4007 21.8896H7.48871C4.46224 21.8896 2 19.4274 2 16.4008V7.48882C2 4.46235 4.46224 2 7.48871 2ZM16.4017 20.1249C18.4553 20.1249 20.126 18.4543 20.126 16.4008H20.1259V7.48877C20.1259 5.43535 18.4552 3.76465 16.4016 3.76465H7.48962C5.43621 3.76465 3.76562 5.43535 3.76562 7.48877V16.4008C3.76562 18.4543 5.43621 20.125 7.48962 20.1249H16.4017ZM17.2844 5.32365C16.9444 5.32365 16.6104 5.4613 16.3702 5.70248C16.1289 5.94248 15.9902 6.2766 15.9902 6.61777C15.9902 6.95789 16.1291 7.29189 16.3702 7.53307C16.6102 7.77307 16.9444 7.91189 17.2844 7.91189C17.6255 7.91189 17.9585 7.77307 18.1996 7.53307C18.4408 7.29189 18.5785 6.95777 18.5785 6.61777C18.5785 6.2766 18.4408 5.94248 18.1996 5.70248C17.9596 5.4613 17.6255 5.32365 17.2844 5.32365ZM11.9454 6.81982C9.11937 6.81982 6.82031 9.11888 6.82031 11.9449C6.82031 14.7708 9.11937 17.0697 11.9454 17.0697C14.7714 17.0697 17.0704 14.7708 17.0704 11.9449C17.0704 9.11888 14.7714 6.81982 11.9454 6.81982ZM11.9463 15.3049C10.0935 15.3049 8.58594 13.7976 8.58594 11.9448C8.58594 10.0919 10.0933 8.58447 11.9463 8.58447C13.7992 8.58447 15.3066 10.0919 15.3066 11.9448C15.3066 13.7976 13.7991 15.3049 11.9463 15.3049Z" fill="#D4A5C1"/>
</svg>
